solid CommaHouseBedroomAirconInlet
facet normal 0.000000 -1.000000 0.000000
outer loop
vertex 87.004517 50.708755 72.483673
vertex 87.004517 50.708755 76.236893
vertex 64.556137 50.708755 76.236893
endloop
endfacet
facet normal 0.000000 -1.000000 0.000000
outer loop
vertex 87.004517 50.708755 72.483673
vertex 64.556137 50.708755 76.236893
vertex 64.556137 50.708755 72.483673
endloop
endfacet
endsolid CommaHouseBedroomAirconInlet
solid CommaHouseBedroomCube
facet normal -1.000000 0.000000 0.000000
outer loop
vertex 64.556137 50.708755 72.483673
vertex 64.556137 50.708755 76.236893
vertex 64.556137 52.708755 76.236893
endloop
endfacet
facet normal -1.000000 0.000000 0.000000
outer loop
vertex 64.556137 50.708755 72.483673
vertex 64.556137 52.708755 76.236893
vertex 64.556137 52.708755 72.483673
endloop
endfacet
facet normal 0.000000 1.000000 0.000000
outer loop
vertex 64.556137 52.708755 72.483673
vertex 64.556137 52.708755 76.236893
vertex 87.004517 52.708755 76.236893
endloop
endfacet
facet normal 0.000000 1.000000 0.000000
outer loop
vertex 64.556137 52.708755 72.483673
vertex 87.004517 52.708755 76.236893
vertex 87.004517 52.708755 72.483673
endloop
endfacet
facet normal 1.000000 0.000000 0.000000
outer loop
vertex 87.004517 52.708755 72.483673
vertex 87.004517 52.708755 76.236893
vertex 87.004517 50.708755 76.236893
endloop
endfacet
facet normal 1.000000 0.000000 0.000000
outer loop
vertex 87.004517 52.708755 72.483673
vertex 87.004517 50.708755 76.236893
vertex 87.004517 50.708755 72.483673
endloop
endfacet
facet normal 0.000000 0.000000 -1.000000
outer loop
vertex 64.556137 52.708755 72.483673
vertex 87.004517 52.708755 72.483673
vertex 87.004517 50.708755 72.483673
endloop
endfacet
facet normal 0.000000 0.000000 -1.000000
outer loop
vertex 64.556137 52.708755 72.483673
vertex 87.004517 50.708755 72.483673
vertex 64.556137 50.708755 72.483673
endloop
endfacet
facet normal 0.000000 0.000000 1.000000
outer loop
vertex 87.004517 52.708755 76.236893
vertex 64.556137 52.708755 76.236893
vertex 64.556137 50.708755 76.236893
endloop
endfacet
facet normal 0.000000 0.000000 1.000000
outer loop
vertex 87.004517 52.708755 76.236893
vertex 64.556137 50.708755 76.236893
vertex 87.004517 50.708755 76.236893
endloop
endfacet
endsolid CommaHouseBedroomCube
solid CommaHouseBedroomDoor1
facet normal 0.000000 1.000000 0.000000
outer loop
vertex 93.146049 -33.791233 6.062303
vertex 93.146049 -33.791233 78.062302
vertex 117.746056 -33.791233 78.062302
endloop
endfacet
facet normal 0.000000 1.000000 0.000000
outer loop
vertex 93.146049 -33.791233 6.062303
vertex 117.746056 -33.791233 78.062302
vertex 117.746056 -33.791233 6.062303
endloop
endfacet
facet normal 1.000000 0.000000 0.000000
outer loop
vertex 117.746056 -33.791233 6.062303
vertex 117.746056 -33.791233 78.062302
vertex 117.746056 -37.391235 78.062302
endloop
endfacet
facet normal 1.000000 0.000000 0.000000
outer loop
vertex 117.746056 -37.391235 78.062302
vertex 117.746056 -37.391235 6.062303
vertex 117.746056 -33.791233 6.062303
endloop
endfacet
facet normal 0.000000 -1.000000 0.000000
outer loop
vertex 93.146049 -37.391235 78.062302
vertex 93.146049 -37.391235 6.062303
vertex 117.746056 -37.391235 6.062303
endloop
endfacet
facet normal 0.000000 -1.000000 0.000000
outer loop
vertex 93.146049 -37.391235 78.062302
vertex 117.746056 -37.391235 6.062303
vertex 117.746056 -37.391235 78.062302
endloop
endfacet
facet normal 0.000000 0.000000 1.000000
outer loop
vertex 117.746056 -37.391235 78.062302
vertex 117.746056 -33.791233 78.062302
vertex 93.146049 -33.791233 78.062302
endloop
endfacet
facet normal 0.000000 0.000000 1.000000
outer loop
vertex 117.746056 -37.391235 78.062302
vertex 93.146049 -33.791233 78.062302
vertex 93.146049 -37.391235 78.062302
endloop
endfacet
facet normal -1.000000 0.000000 0.000000
outer loop
vertex 93.146049 -33.791233 78.062302
vertex 93.146049 -33.791233 6.062303
vertex 93.146049 -37.391235 6.062303
endloop
endfacet
facet normal -1.000000 0.000000 0.000000
outer loop
vertex 93.146049 -33.791233 78.062302
vertex 93.146049 -37.391235 6.062303
vertex 93.146049 -37.391235 78.062302
endloop
endfacet
facet normal 0.000000 0.000000 -1.000000
outer loop
vertex 93.146049 -33.791233 6.062303
vertex 117.746056 -33.791233 6.062303
vertex 117.746056 -37.391235 6.062303
endloop
endfacet
facet normal 0.000000 0.000000 -1.000000
outer loop
vertex 93.146049 -33.791233 6.062303
vertex 117.746056 -37.391235 6.062303
vertex 93.146049 -37.391235 6.062303
endloop
endfacet
endsolid CommaHouseBedroomDoor1
solid CommaHouseBedroomDoor2
facet normal 0.000000 -1.000000 0.000000
outer loop
vertex 95.246056 51.708755 76.562302
vertex 95.246056 51.708755 6.062303
vertex 114.746056 51.708755 6.062303
endloop
endfacet
facet normal 0.000000 -1.000000 0.000000
outer loop
vertex 95.246056 51.708755 76.562302
vertex 114.746056 51.708755 6.062303
vertex 114.746056 51.708755 76.562302
endloop
endfacet
facet normal 0.000000 1.000000 0.000000
outer loop
vertex 95.246056 55.308758 6.062303
vertex 95.246056 55.308758 76.562302
vertex 114.746056 55.308758 76.562302
endloop
endfacet
facet normal 0.000000 1.000000 0.000000
outer loop
vertex 95.246056 55.308758 6.062303
vertex 114.746056 55.308758 76.562302
vertex 114.746056 55.308758 6.062303
endloop
endfacet
facet normal 1.000000 0.000000 0.000000
outer loop
vertex 114.746056 51.708755 76.562302
vertex 114.746056 51.708755 6.062303
vertex 114.746056 55.308758 6.062303
endloop
endfacet
facet normal 1.000000 0.000000 0.000000
outer loop
vertex 114.746056 55.308758 6.062303
vertex 114.746056 55.308758 76.562302
vertex 114.746056 51.708755 76.562302
endloop
endfacet
facet normal 0.000000 0.000000 1.000000
outer loop
vertex 95.246056 55.308758 76.562302
vertex 95.246056 51.708755 76.562302
vertex 114.746056 51.708755 76.562302
endloop
endfacet
facet normal 0.000000 0.000000 1.000000
outer loop
vertex 95.246056 55.308758 76.562302
vertex 114.746056 51.708755 76.562302
vertex 114.746056 55.308758 76.562302
endloop
endfacet
facet normal -1.000000 0.000000 0.000000
outer loop
vertex 95.246056 51.708755 76.562302
vertex 95.246056 55.308758 76.562302
vertex 95.246056 55.308758 6.062303
endloop
endfacet
facet normal -1.000000 0.000000 0.000000
outer loop
vertex 95.246056 51.708755 76.562302
vertex 95.246056 55.308758 6.062303
vertex 95.246056 51.708755 6.062303
endloop
endfacet
facet normal 0.000000 0.000000 -1.000000
outer loop
vertex 114.746056 55.308758 6.062303
vertex 114.746056 51.708755 6.062303
vertex 95.246056 51.708755 6.062303
endloop
endfacet
facet normal 0.000000 0.000000 -1.000000
outer loop
vertex 114.746056 55.308758 6.062303
vertex 95.246056 51.708755 6.062303
vertex 95.246056 55.308758 6.062303
endloop
endfacet
endsolid CommaHouseBedroomDoor2
solid CommaHouseBedroomDoor3
facet normal 0.000000 -1.000000 0.000000
outer loop
vertex -38.253944 -37.391235 11.462302
vertex -38.253944 -37.391235 66.062302
vertex -57.753944 -37.391235 66.062302
endloop
endfacet
facet normal 0.000000 -1.000000 0.000000
outer loop
vertex -38.253944 -37.391235 11.462302
vertex -57.753944 -37.391235 66.062302
vertex -57.753944 -37.391235 11.462302
endloop
endfacet
facet normal -1.000000 0.000000 0.000000
outer loop
vertex -57.753944 -33.791233 66.062302
vertex -57.753944 -33.791233 11.462302
vertex -57.753944 -37.391235 11.462302
endloop
endfacet
facet normal -1.000000 0.000000 0.000000
outer loop
vertex -57.753944 -37.391235 11.462302
vertex -57.753944 -37.391235 66.062302
vertex -57.753944 -33.791233 66.062302
endloop
endfacet
facet normal 0.000000 1.000000 0.000000
outer loop
vertex -38.253944 -33.791233 66.062302
vertex -38.253944 -33.791233 11.462302
vertex -57.753944 -33.791233 11.462302
endloop
endfacet
facet normal 0.000000 1.000000 0.000000
outer loop
vertex -38.253944 -33.791233 66.062302
vertex -57.753944 -33.791233 11.462302
vertex -57.753944 -33.791233 66.062302
endloop
endfacet
facet normal 0.000000 0.000000 1.000000
outer loop
vertex -57.753944 -33.791233 66.062302
vertex -57.753944 -37.391235 66.062302
vertex -38.253944 -37.391235 66.062302
endloop
endfacet
facet normal 0.000000 0.000000 1.000000
outer loop
vertex -57.753944 -33.791233 66.062302
vertex -38.253944 -37.391235 66.062302
vertex -38.253944 -33.791233 66.062302
endloop
endfacet
facet normal 1.000000 0.000000 0.000000
outer loop
vertex -38.253944 -33.791233 66.062302
vertex -38.253944 -37.391235 66.062302
vertex -38.253944 -37.391235 11.462302
endloop
endfacet
facet normal 1.000000 0.000000 0.000000
outer loop
vertex -38.253944 -33.791233 66.062302
vertex -38.253944 -37.391235 11.462302
vertex -38.253944 -33.791233 11.462302
endloop
endfacet
facet normal 0.000000 0.000000 -1.000000
outer loop
vertex -38.253944 -37.391235 11.462302
vertex -57.753944 -37.391235 11.462302
vertex -57.753944 -33.791233 11.462302
endloop
endfacet
facet normal 0.000000 0.000000 -1.000000
outer loop
vertex -38.253944 -37.391235 11.462302
vertex -57.753944 -33.791233 11.462302
vertex -38.253944 -33.791233 11.462302
endloop
endfacet
endsolid CommaHouseBedroomDoor3
solid CommaHouseBedroomFloor
facet normal -1.000000 0.000000 0.000000
outer loop
vertex -61.353943 -37.391235 6.062303
vertex -61.353943 55.308758 6.062303
vertex -61.353943 55.308758 0.062303
endloop
endfacet
facet normal -1.000000 0.000000 0.000000
outer loop
vertex -61.353943 55.308758 0.062303
vertex -61.353943 -37.391235 0.062303
vertex -61.353943 -37.391235 6.062303
endloop
endfacet
facet normal 0.000000 1.000000 0.000000
outer loop
vertex -61.353943 55.308758 6.062303
vertex 121.346046 55.308758 6.062303
vertex 121.346046 55.308758 0.062303
endloop
endfacet
facet normal 0.000000 1.000000 0.000000
outer loop
vertex 121.346046 55.308758 0.062303
vertex -61.353943 55.308758 0.062303
vertex -61.353943 55.308758 6.062303
endloop
endfacet
facet normal 1.000000 0.000000 0.000000
outer loop
vertex 121.346046 55.308758 6.062303
vertex 121.346046 -37.391235 6.062303
vertex 121.346046 -37.391235 0.062303
endloop
endfacet
facet normal 1.000000 0.000000 0.000000
outer loop
vertex 121.346046 -37.391235 0.062303
vertex 121.346046 55.308758 0.062303
vertex 121.346046 55.308758 6.062303
endloop
endfacet
facet normal 0.000000 -1.000000 0.000000
outer loop
vertex 121.346046 -37.391235 6.062303
vertex -61.353943 -37.391235 6.062303
vertex -61.353943 -37.391235 0.062303
endloop
endfacet
facet normal 0.000000 -1.000000 0.000000
outer loop
vertex -61.353943 -37.391235 0.062303
vertex 121.346046 -37.391235 0.062303
vertex 121.346046 -37.391235 6.062303
endloop
endfacet
facet normal 0.000000 0.000000 1.000000
outer loop
vertex -61.353943 -37.391235 6.062303
vertex 121.346046 -37.391235 6.062303
vertex 121.346046 55.308758 6.062303
endloop
endfacet
facet normal 0.000000 0.000000 1.000000
outer loop
vertex 121.346046 55.308758 6.062303
vertex -61.353943 55.308758 6.062303
vertex -61.353943 -37.391235 6.062303
endloop
endfacet
facet normal 0.000000 0.000000 -1.000000
outer loop
vertex -61.353943 -37.391235 0.062303
vertex 121.346046 55.308758 0.062303
vertex 121.346046 -37.391235 0.062303
endloop
endfacet
facet normal 0.000000 0.000000 -1.000000
outer loop
vertex 121.346046 55.308758 0.062303
vertex -61.353943 -37.391235 0.062303
vertex -61.353943 55.308758 0.062303
endloop
endfacet
endsolid CommaHouseBedroomFloor
solid CommaHouseBedroomRoof
facet normal 0.240583 0.000000 -0.970629
outer loop
vertex -61.353943 -37.391235 75.670029
vertex -61.353943 55.308758 75.670029
vertex 121.346046 55.308758 120.954559
endloop
endfacet
facet normal 0.240583 0.000000 -0.970629
outer loop
vertex 121.346046 55.308758 120.954559
vertex 121.346046 -37.391235 120.954559
vertex -61.353943 -37.391235 75.670029
endloop
endfacet
facet normal -1.000000 0.000000 0.000000
outer loop
vertex -61.353943 55.308758 81.670029
vertex -61.353943 55.308758 75.670029
vertex -61.353943 -37.391235 75.670029
endloop
endfacet
facet normal -1.000000 0.000000 0.000000
outer loop
vertex -61.353943 -37.391235 75.670029
vertex -61.353943 -37.391235 81.670029
vertex -61.353943 55.308758 81.670029
endloop
endfacet
facet normal 0.000000 1.000000 0.000000
outer loop
vertex 121.346046 55.308758 126.954575
vertex 121.346046 55.308758 120.954559
vertex -61.353943 55.308758 75.670029
endloop
endfacet
facet normal 0.000000 1.000000 0.000000
outer loop
vertex -61.353943 55.308758 75.670029
vertex -61.353943 55.308758 81.670029
vertex 121.346046 55.308758 126.954575
endloop
endfacet
facet normal 1.000000 0.000000 0.000000
outer loop
vertex 121.346046 -37.391235 126.954575
vertex 121.346046 -37.391235 120.954559
vertex 121.346046 55.308758 120.954559
endloop
endfacet
facet normal 1.000000 0.000000 0.000000
outer loop
vertex 121.346046 55.308758 120.954559
vertex 121.346046 55.308758 126.954575
vertex 121.346046 -37.391235 126.954575
endloop
endfacet
facet normal 0.000000 -1.000000 0.000000
outer loop
vertex -61.353943 -37.391235 81.670029
vertex -61.353943 -37.391235 75.670029
vertex 121.346046 -37.391235 120.954559
endloop
endfacet
facet normal 0.000000 -1.000000 0.000000
outer loop
vertex 121.346046 -37.391235 120.954559
vertex 121.346046 -37.391235 126.954575
vertex -61.353943 -37.391235 81.670029
endloop
endfacet
facet normal -0.240583 0.000000 0.970629
outer loop
vertex -61.353943 -37.391235 81.670029
vertex 121.346046 -37.391235 126.954575
vertex 121.346046 55.308758 126.954575
endloop
endfacet
facet normal -0.240583 0.000000 0.970629
outer loop
vertex 121.346046 55.308758 126.954575
vertex -61.353943 55.308758 81.670029
vertex -61.353943 -37.391235 81.670029
endloop
endfacet
endsolid CommaHouseBedroomRoof
solid CommaHouseBedroomRoomBox
facet normal 0.000000 -1.000000 0.000000
outer loop
vertex -57.753944 -37.391235 11.462302
vertex -61.353943 -37.391235 6.062303
vertex -38.253944 -37.391235 11.462302
endloop
endfacet
facet normal 0.000000 -1.000000 0.000001
outer loop
vertex 93.146049 -37.391235 6.062303
vertex -38.253944 -37.391235 11.462302
vertex -61.353943 -37.391235 6.062303
endloop
endfacet
facet normal 0.000000 -1.000000 0.000000
outer loop
vertex -57.753944 -37.391235 11.462302
vertex -57.753944 -37.391235 66.062302
vertex -61.353943 -37.391235 75.670029
endloop
endfacet
facet normal 0.000000 -1.000000 0.000000
outer loop
vertex -61.353943 -37.391235 75.670029
vertex -61.353943 -37.391235 6.062303
vertex -57.753944 -37.391235 11.462302
endloop
endfacet
facet normal 0.000000 -1.000000 -0.000000
outer loop
vertex -38.253944 -37.391235 66.062302
vertex -61.353943 -37.391235 75.670029
vertex -57.753944 -37.391235 66.062302
endloop
endfacet
facet normal 0.000000 -1.000000 0.000000
outer loop
vertex 121.346046 -37.391235 120.954559
vertex -61.353943 -37.391235 75.670029
vertex -38.253944 -37.391235 66.062302
endloop
endfacet
facet normal 0.000000 -1.000000 0.000000
outer loop
vertex -38.253944 -37.391235 66.062302
vertex -38.253944 -37.391235 11.462302
vertex 93.146049 -37.391235 6.062303
endloop
endfacet
facet normal 0.000000 -1.000000 0.000000
outer loop
vertex 93.146049 -37.391235 6.062303
vertex 93.146049 -37.391235 78.062302
vertex -38.253944 -37.391235 66.062302
endloop
endfacet
facet normal 0.000000 -1.000000 0.000000
outer loop
vertex 117.746056 -37.391235 78.062302
vertex 117.746056 -37.391235 6.062303
vertex 121.346046 -37.391235 6.062303
endloop
endfacet
facet normal 0.000000 -1.000000 0.000000
outer loop
vertex 121.346046 -37.391235 120.954559
vertex 93.146049 -37.391235 78.062302
vertex 117.746056 -37.391235 78.062302
endloop
endfacet
facet normal 0.000000 -1.000000 0.000000
outer loop
vertex 121.346046 -37.391235 6.062303
vertex 121.346046 -37.391235 120.954559
vertex 117.746056 -37.391235 78.062302
endloop
endfacet
facet normal 0.000000 -1.000000 0.000000
outer loop
vertex -38.253944 -37.391235 66.062302
vertex 93.146049 -37.391235 78.062302
vertex 121.346046 -37.391235 120.954559
endloop
endfacet
facet normal 1.000000 0.000000 0.000000
outer loop
vertex 121.346046 -37.391235 120.954559
vertex 121.346046 -37.391235 6.062303
vertex 121.346046 55.308758 6.062303
endloop
endfacet
facet normal 1.000000 0.000000 0.000000
outer loop
vertex 121.346046 55.308758 6.062303
vertex 121.346046 55.308758 120.954559
vertex 121.346046 -37.391235 120.954559
endloop
endfacet
facet normal 0.000000 1.000000 0.000000
outer loop
vertex 114.746056 55.308758 6.062303
vertex 114.746056 55.308758 76.562302
vertex 121.346046 55.308758 6.062303
endloop
endfacet
facet normal 0.000000 1.000000 0.000000
outer loop
vertex 95.246056 55.308758 6.062303
vertex 53.246056 55.308758 31.562304
vertex 95.246056 55.308758 76.562302
endloop
endfacet
facet normal 0.000000 1.000000 0.000000
outer loop
vertex 17.246056 55.308758 31.562304
vertex 53.246056 55.308758 31.562304
vertex 95.246056 55.308758 6.062303
endloop
endfacet
facet normal 0.000000 1.000000 -0.000000
outer loop
vertex 95.246056 55.308758 76.562302
vertex 121.346046 55.308758 120.954559
vertex 114.746056 55.308758 76.562302
endloop
endfacet
facet normal 0.000000 1.000000 0.000000
outer loop
vertex 121.346046 55.308758 6.062303
vertex 114.746056 55.308758 76.562302
vertex 121.346046 55.308758 120.954559
endloop
endfacet
facet normal 0.000000 1.000000 0.000000
outer loop
vertex 121.346046 55.308758 120.954559
vertex 95.246056 55.308758 76.562302
vertex 53.246056 55.308758 76.562302
endloop
endfacet
facet normal 0.000000 1.000000 0.000000
outer loop
vertex 53.246056 55.308758 31.562304
vertex 53.246056 55.308758 76.562302
vertex 95.246056 55.308758 76.562302
endloop
endfacet
facet normal 0.000000 1.000000 0.000000
outer loop
vertex 17.246056 55.308758 76.562302
vertex 121.346046 55.308758 120.954559
vertex 53.246056 55.308758 76.562302
endloop
endfacet
facet normal 0.000000 1.000000 0.000000
outer loop
vertex 17.246056 55.308758 76.562302
vertex 17.246056 55.308758 31.562304
vertex 14.246056 55.308758 31.562304
endloop
endfacet
facet normal 0.000000 1.000000 0.000000
outer loop
vertex 14.246056 55.308758 31.562304
vertex 14.246056 55.308758 76.562302
vertex 17.246056 55.308758 76.562302
endloop
endfacet
facet normal 0.000000 1.000000 0.000000
outer loop
vertex -61.353943 55.308758 6.062303
vertex 14.246056 55.308758 31.562304
vertex 17.246056 55.308758 31.562304
endloop
endfacet
facet normal 0.000000 1.000000 0.000000
outer loop
vertex -61.353943 55.308758 6.062303
vertex -61.353943 55.308758 75.670029
vertex -21.753944 55.308758 76.562302
endloop
endfacet
facet normal 0.000000 1.000000 0.000000
outer loop
vertex -21.753944 55.308758 76.562302
vertex -21.753944 55.308758 31.562304
vertex -61.353943 55.308758 6.062303
endloop
endfacet
facet normal 0.000000 1.000000 -0.000001
outer loop
vertex 14.246056 55.308758 31.562304
vertex -61.353943 55.308758 6.062303
vertex -21.753944 55.308758 31.562304
endloop
endfacet
facet normal 0.000000 1.000000 0.000000
outer loop
vertex -61.353943 55.308758 6.062303
vertex 17.246056 55.308758 31.562304
vertex 95.246056 55.308758 6.062303
endloop
endfacet
facet normal 0.000000 1.000000 0.000000
outer loop
vertex 121.346046 55.308758 120.954559
vertex 17.246056 55.308758 76.562302
vertex 14.246056 55.308758 76.562302
endloop
endfacet
facet normal 0.000000 1.000000 0.000000
outer loop
vertex 121.346046 55.308758 120.954559
vertex -21.753944 55.308758 76.562302
vertex -61.353943 55.308758 75.670029
endloop
endfacet
facet normal 0.000000 1.000000 0.000000
outer loop
vertex 121.346046 55.308758 120.954559
vertex 14.246056 55.308758 76.562302
vertex -21.753944 55.308758 76.562302
endloop
endfacet
facet normal -1.000000 -0.000000 0.000000
outer loop
vertex -61.353943 55.308758 75.670029
vertex -61.353943 55.308758 6.062303
vertex -61.353943 42.708755 31.562304
endloop
endfacet
facet normal -1.000000 0.000000 0.000000
outer loop
vertex -61.353943 6.708765 31.562304
vertex -61.353943 42.708755 31.562304
vertex -61.353943 55.308758 6.062303
endloop
endfacet
facet normal -1.000000 0.000000 0.000000
outer loop
vertex -61.353943 6.708765 66.062302
vertex -61.353943 55.308758 75.670029
vertex -61.353943 42.708755 66.062302
endloop
endfacet
facet normal -1.000000 0.000000 0.000000
outer loop
vertex -61.353943 42.708755 31.562304
vertex -61.353943 42.708755 66.062302
vertex -61.353943 55.308758 75.670029
endloop
endfacet
facet normal -1.000000 0.000000 0.000000
outer loop
vertex -61.353943 -37.391235 75.670029
vertex -61.353943 6.708765 31.562304
vertex -61.353943 -37.391235 6.062303
endloop
endfacet
facet normal -1.000000 0.000000 0.000000
outer loop
vertex -61.353943 55.308758 6.062303
vertex -61.353943 -37.391235 6.062303
vertex -61.353943 6.708765 31.562304
endloop
endfacet
facet normal -1.000000 0.000000 0.000000
outer loop
vertex -61.353943 55.308758 75.670029
vertex -61.353943 6.708765 66.062302
vertex -61.353943 -37.391235 75.670029
endloop
endfacet
facet normal -1.000000 0.000000 0.000000
outer loop
vertex -61.353943 6.708765 31.562304
vertex -61.353943 -37.391235 75.670029
vertex -61.353943 6.708765 66.062302
endloop
endfacet
facet normal 0.000000 -1.000000 0.000000
outer loop
vertex -57.753944 51.708755 76.562302
vertex -57.753944 51.708755 6.062303
vertex -21.753944 51.708755 31.562304
endloop
endfacet
facet normal 0.000000 -1.000000 0.000000
outer loop
vertex 14.246056 51.708755 31.562304
vertex -21.753944 51.708755 31.562304
vertex -57.753944 51.708755 6.062303
endloop
endfacet
facet normal 0.000000 -1.000000 -0.000005
outer loop
vertex -57.753944 51.708755 6.062303
vertex 17.246056 51.708755 31.562304
vertex 14.246056 51.708755 31.562304
endloop
endfacet
facet normal 0.000000 -1.000000 0.000000
outer loop
vertex 17.246056 51.708755 31.562304
vertex -57.753944 51.708755 6.062303
vertex 95.246056 51.708755 6.062303
endloop
endfacet
facet normal 0.000000 -1.000000 0.000000
outer loop
vertex 17.246056 51.708755 31.562304
vertex 14.246056 51.708755 76.562302
vertex 14.246056 51.708755 31.562304
endloop
endfacet
facet normal 0.000000 -1.000000 0.000000
outer loop
vertex 117.746056 51.708755 120.062294
vertex -57.753944 51.708755 76.562302
vertex -21.753944 51.708755 76.562302
endloop
endfacet
facet normal 0.000000 -1.000000 0.000000
outer loop
vertex -21.753944 51.708755 76.562302
vertex -57.753944 51.708755 76.562302
vertex -21.753944 51.708755 31.562304
endloop
endfacet
facet normal 0.000000 -1.000000 -0.000004
outer loop
vertex 117.746056 51.708755 120.062294
vertex 14.246056 51.708755 76.562302
vertex 17.246056 51.708755 76.562302
endloop
endfacet
facet normal 0.000000 -1.000000 0.000000
outer loop
vertex 17.246056 51.708755 31.562304
vertex 17.246056 51.708755 76.562302
vertex 14.246056 51.708755 76.562302
endloop
endfacet
facet normal 0.000000 -1.000000 0.000001
outer loop
vertex 117.746056 51.708755 120.062294
vertex -21.753944 51.708755 76.562302
vertex 14.246056 51.708755 76.562302
endloop
endfacet
facet normal 0.000000 -1.000000 0.000000
outer loop
vertex 17.246056 51.708755 31.562304
vertex 95.246056 51.708755 6.062303
vertex 53.246056 51.708755 31.562304
endloop
endfacet
facet normal 0.000000 -1.000000 0.000000
outer loop
vertex 117.746056 51.708755 6.062303
vertex 114.746056 51.708755 76.562302
vertex 114.746056 51.708755 6.062303
endloop
endfacet
facet normal 0.000000 -1.000000 0.000000
outer loop
vertex 117.746056 51.708755 120.062294
vertex 53.246056 51.708755 76.562302
vertex 95.246056 51.708755 76.562302
endloop
endfacet
facet normal 0.000000 -1.000000 0.000000
outer loop
vertex 95.246056 51.708755 76.562302
vertex 53.246056 51.708755 76.562302
vertex 53.246056 51.708755 31.562304
endloop
endfacet
facet normal 0.000000 -1.000000 0.000000
outer loop
vertex 95.246056 51.708755 76.562302
vertex 114.746056 51.708755 76.562302
vertex 117.746056 51.708755 120.062294
endloop
endfacet
facet normal 0.000000 -1.000000 0.000000
outer loop
vertex 117.746056 51.708755 6.062303
vertex 117.746056 51.708755 120.062294
vertex 114.746056 51.708755 76.562302
endloop
endfacet
facet normal 0.000000 -1.000000 0.000000
outer loop
vertex 53.246056 51.708755 31.562304
vertex 95.246056 51.708755 6.062303
vertex 95.246056 51.708755 76.562302
endloop
endfacet
facet normal 0.000000 -1.000000 0.000000
outer loop
vertex 17.246056 51.708755 76.562302
vertex 53.246056 51.708755 76.562302
vertex 117.746056 51.708755 120.062294
endloop
endfacet
facet normal 0.000000 1.000000 0.000000
outer loop
vertex -38.253944 -33.791233 66.062302
vertex 93.146049 -33.791233 78.062302
vertex 93.146049 -33.791233 6.062303
endloop
endfacet
facet normal 0.000000 1.000000 0.000001
outer loop
vertex -57.753944 -33.791233 6.062303
vertex -38.253944 -33.791233 11.462302
vertex 93.146049 -33.791233 6.062303
endloop
endfacet
facet normal 0.000000 1.000000 0.000000
outer loop
vertex 117.746056 -33.791233 120.062294
vertex 117.746056 -33.791233 78.062302
vertex 93.146049 -33.791233 78.062302
endloop
endfacet
facet normal 0.000000 1.000000 -0.000000
outer loop
vertex 93.146049 -33.791233 78.062302
vertex -38.253944 -33.791233 66.062302
vertex 117.746056 -33.791233 120.062294
endloop
endfacet
facet normal 0.000000 1.000000 0.000000
outer loop
vertex -38.253944 -33.791233 11.462302
vertex -38.253944 -33.791233 66.062302
vertex 93.146049 -33.791233 6.062303
endloop
endfacet
facet normal 0.000000 1.000000 0.000000
outer loop
vertex -57.753944 -33.791233 76.562302
vertex -38.253944 -33.791233 66.062302
vertex -57.753944 -33.791233 66.062302
endloop
endfacet
facet normal 0.000000 1.000000 0.000000
outer loop
vertex 117.746056 -33.791233 120.062294
vertex -38.253944 -33.791233 66.062302
vertex -57.753944 -33.791233 76.562302
endloop
endfacet
facet normal 0.000000 1.000000 0.000000
outer loop
vertex -57.753944 -33.791233 6.062303
vertex -57.753944 -33.791233 11.462302
vertex -38.253944 -33.791233 11.462302
endloop
endfacet
facet normal 0.000000 0.000000 1.000000
outer loop
vertex -21.753944 51.708755 31.562304
vertex 14.246056 51.708755 31.562304
vertex 14.246056 55.308758 31.562304
endloop
endfacet
facet normal 0.000000 0.000000 1.000000
outer loop
vertex 14.246056 55.308758 31.562304
vertex -21.753944 55.308758 31.562304
vertex -21.753944 51.708755 31.562304
endloop
endfacet
facet normal -1.000000 0.000000 0.000000
outer loop
vertex 14.246056 51.708755 31.562304
vertex 14.246056 51.708755 76.562302
vertex 14.246056 55.308758 76.562302
endloop
endfacet
facet normal -1.000000 0.000000 0.000000
outer loop
vertex 14.246056 55.308758 76.562302
vertex 14.246056 55.308758 31.562304
vertex 14.246056 51.708755 31.562304
endloop
endfacet
facet normal 0.000000 0.000000 -1.000000
outer loop
vertex 14.246056 51.708755 76.562302
vertex -21.753944 51.708755 76.562302
vertex -21.753944 55.308758 76.562302
endloop
endfacet
facet normal 0.000000 0.000000 -1.000000
outer loop
vertex -21.753944 55.308758 76.562302
vertex 14.246056 55.308758 76.562302
vertex 14.246056 51.708755 76.562302
endloop
endfacet
facet normal 0.000000 0.000000 1.000000
outer loop
vertex -21.753944 55.308758 76.562302
vertex -21.753944 51.708755 76.562302
vertex 14.246056 51.708755 76.562302
endloop
endfacet
facet normal 0.000000 0.000000 1.000000
outer loop
vertex -21.753944 55.308758 76.562302
vertex 14.246056 51.708755 76.562302
vertex 14.246056 55.308758 76.562302
endloop
endfacet
facet normal 0.000000 0.000000 1.000000
outer loop
vertex 17.246056 51.708755 31.562304
vertex 53.246056 51.708755 31.562304
vertex 53.246056 55.308758 31.562304
endloop
endfacet
facet normal 0.000000 0.000000 1.000000
outer loop
vertex 53.246056 55.308758 31.562304
vertex 17.246056 55.308758 31.562304
vertex 17.246056 51.708755 31.562304
endloop
endfacet
facet normal -1.000000 0.000000 0.000000
outer loop
vertex 53.246056 51.708755 31.562304
vertex 53.246056 51.708755 76.562302
vertex 53.246056 55.308758 76.562302
endloop
endfacet
facet normal -1.000000 0.000000 0.000000
outer loop
vertex 53.246056 55.308758 76.562302
vertex 53.246056 55.308758 31.562304
vertex 53.246056 51.708755 31.562304
endloop
endfacet
facet normal 0.000000 0.000000 -1.000000
outer loop
vertex 53.246056 51.708755 76.562302
vertex 17.246056 51.708755 76.562302
vertex 17.246056 55.308758 76.562302
endloop
endfacet
facet normal 0.000000 0.000000 -1.000000
outer loop
vertex 17.246056 55.308758 76.562302
vertex 53.246056 55.308758 76.562302
vertex 53.246056 51.708755 76.562302
endloop
endfacet
facet normal 0.000000 0.000000 1.000000
outer loop
vertex 17.246056 55.308758 76.562302
vertex 17.246056 51.708755 76.562302
vertex 53.246056 51.708755 76.562302
endloop
endfacet
facet normal 0.000000 0.000000 1.000000
outer loop
vertex 17.246056 55.308758 76.562302
vertex 53.246056 51.708755 76.562302
vertex 53.246056 55.308758 76.562302
endloop
endfacet
facet normal -1.000000 0.000000 0.000000
outer loop
vertex 114.746056 51.708755 6.062303
vertex 114.746056 51.708755 76.562302
vertex 114.746056 55.308758 76.562302
endloop
endfacet
facet normal -1.000000 0.000000 0.000000
outer loop
vertex 114.746056 55.308758 76.562302
vertex 114.746056 55.308758 6.062303
vertex 114.746056 51.708755 6.062303
endloop
endfacet
facet normal 0.000000 0.000000 -1.000000
outer loop
vertex 114.746056 51.708755 76.562302
vertex 95.246056 51.708755 76.562302
vertex 95.246056 55.308758 76.562302
endloop
endfacet
facet normal 0.000000 0.000000 -1.000000
outer loop
vertex 95.246056 55.308758 76.562302
vertex 114.746056 55.308758 76.562302
vertex 114.746056 51.708755 76.562302
endloop
endfacet
facet normal 0.000000 0.000000 0.000000
outer loop
vertex 95.246056 55.308758 76.562302
vertex 95.246056 51.708755 76.562302
vertex 95.246056 51.708755 76.562302
endloop
endfacet
facet normal 0.000000 0.000000 0.000000
outer loop
vertex 95.246056 55.308758 76.562302
vertex 95.246056 51.708755 76.562302
vertex 95.246056 55.308758 76.562302
endloop
endfacet
facet normal 0.000000 0.000000 0.000000
outer loop
vertex 95.246056 51.708755 6.062303
vertex 95.246056 55.308758 6.062303
vertex 95.246056 55.308758 6.062303
endloop
endfacet
facet normal 0.000000 0.000000 0.000000
outer loop
vertex 95.246056 51.708755 6.062303
vertex 95.246056 55.308758 6.062303
vertex 95.246056 51.708755 6.062303
endloop
endfacet
facet normal -0.000000 0.000000 -1.000000
outer loop
vertex -61.353943 55.308758 6.062303
vertex -57.753944 51.708755 6.062303
vertex -57.753944 -33.791233 6.062303
endloop
endfacet
facet normal 0.000000 0.000000 -1.000000
outer loop
vertex -57.753944 -33.791233 6.062303
vertex -61.353943 -37.391235 6.062303
vertex -61.353943 55.308758 6.062303
endloop
endfacet
facet normal 0.000000 0.000000 -1.000000
outer loop
vertex -61.353943 -37.391235 6.062303
vertex -57.753944 -33.791233 6.062303
vertex 93.146049 -33.791233 6.062303
endloop
endfacet
facet normal 0.000000 0.000000 -1.000000
outer loop
vertex 93.146049 -33.791233 6.062303
vertex 93.146049 -37.391235 6.062303
vertex -61.353943 -37.391235 6.062303
endloop
endfacet
facet normal 0.000000 0.000000 -1.000000
outer loop
vertex 95.246056 55.308758 6.062303
vertex 95.246056 51.708755 6.062303
vertex -57.753944 51.708755 6.062303
endloop
endfacet
facet normal 0.000000 0.000000 -1.000000
outer loop
vertex -57.753944 51.708755 6.062303
vertex -61.353943 55.308758 6.062303
vertex 95.246056 55.308758 6.062303
endloop
endfacet
facet normal 0.000000 0.000000 -1.000000
outer loop
vertex -57.753944 -33.791233 66.062302
vertex -38.253944 -33.791233 66.062302
vertex -38.253944 -37.391235 66.062302
endloop
endfacet
facet normal 0.000000 0.000000 -1.000000
outer loop
vertex -38.253944 -37.391235 66.062302
vertex -57.753944 -37.391235 66.062302
vertex -57.753944 -33.791233 66.062302
endloop
endfacet
facet normal 0.000000 0.000000 0.000000
outer loop
vertex -38.253944 -37.391235 66.062302
vertex -38.253944 -33.791233 66.062302
vertex -38.253944 -33.791233 66.062302
endloop
endfacet
facet normal 0.000000 0.000000 0.000000
outer loop
vertex -38.253944 -37.391235 66.062302
vertex -38.253944 -33.791233 66.062302
vertex -38.253944 -37.391235 66.062302
endloop
endfacet
facet normal 0.000000 0.000000 0.000000
outer loop
vertex -38.253944 -33.791233 11.462302
vertex -38.253944 -37.391235 11.462302
vertex -38.253944 -37.391235 11.462302
endloop
endfacet
facet normal 0.000000 0.000000 0.000000
outer loop
vertex -38.253944 -33.791233 11.462302
vertex -38.253944 -37.391235 11.462302
vertex -38.253944 -33.791233 11.462302
endloop
endfacet
facet normal 0.000000 0.000000 1.000000
outer loop
vertex -38.253944 -33.791233 11.462302
vertex -57.753944 -33.791233 11.462302
vertex -57.753944 -37.391235 11.462302
endloop
endfacet
facet normal 0.000000 0.000000 1.000000
outer loop
vertex -57.753944 -37.391235 11.462302
vertex -38.253944 -37.391235 11.462302
vertex -38.253944 -33.791233 11.462302
endloop
endfacet
facet normal 1.000000 0.000000 0.000000
outer loop
vertex -57.753944 -33.791233 11.462302
vertex -57.753944 6.708765 31.562304
vertex -57.753944 -33.791233 66.062302
endloop
endfacet
facet normal 1.000000 0.000000 0.000000
outer loop
vertex -57.753944 -33.791233 76.562302
vertex -57.753944 -33.791233 66.062302
vertex -57.753944 6.708765 66.062302
endloop
endfacet
facet normal 1.000000 0.000000 0.000000
outer loop
vertex -57.753944 -33.791233 66.062302
vertex -57.753944 6.708765 31.562304
vertex -57.753944 6.708765 66.062302
endloop
endfacet
facet normal 1.000000 0.000000 0.000000
outer loop
vertex -57.753944 51.708755 76.562302
vertex -57.753944 -33.791233 76.562302
vertex -57.753944 6.708765 66.062302
endloop
endfacet
facet normal 1.000000 0.000000 0.000000
outer loop
vertex -57.753944 6.708765 66.062302
vertex -57.753944 42.708755 66.062302
vertex -57.753944 51.708755 76.562302
endloop
endfacet
facet normal 1.000000 -0.000001 0.000000
outer loop
vertex -57.753944 6.708765 31.562304
vertex -57.753944 -33.791233 11.462302
vertex -57.753944 -33.791233 6.062303
endloop
endfacet
facet normal 1.000000 0.000000 0.000000
outer loop
vertex -57.753944 51.708755 6.062303
vertex -57.753944 51.708755 76.562302
vertex -57.753944 42.708755 66.062302
endloop
endfacet
facet normal 1.000000 -0.000001 0.000000
outer loop
vertex -57.753944 42.708755 66.062302
vertex -57.753944 42.708755 31.562304
vertex -57.753944 51.708755 6.062303
endloop
endfacet
facet normal 1.000000 0.000000 0.000000
outer loop
vertex -57.753944 6.708765 31.562304
vertex -57.753944 51.708755 6.062303
vertex -57.753944 42.708755 31.562304
endloop
endfacet
facet normal 1.000000 0.000000 0.000000
outer loop
vertex -57.753944 -33.791233 6.062303
vertex -57.753944 51.708755 6.062303
vertex -57.753944 6.708765 31.562304
endloop
endfacet
facet normal 1.000000 0.000000 0.000000
outer loop
vertex -57.753944 -33.791233 11.462302
vertex -57.753944 -33.791233 66.062302
vertex -57.753944 -37.391235 66.062302
endloop
endfacet
facet normal 1.000000 0.000000 0.000000
outer loop
vertex -57.753944 -37.391235 66.062302
vertex -57.753944 -37.391235 11.462302
vertex -57.753944 -33.791233 11.462302
endloop
endfacet
facet normal 0.000000 0.000000 -1.000000
outer loop
vertex 93.146049 -33.791233 78.062302
vertex 117.746056 -33.791233 78.062302
vertex 117.746056 -37.391235 78.062302
endloop
endfacet
facet normal 0.000000 0.000000 -1.000000
outer loop
vertex 117.746056 -37.391235 78.062302
vertex 93.146049 -37.391235 78.062302
vertex 93.146049 -33.791233 78.062302
endloop
endfacet
facet normal -1.000000 0.000000 0.000000
outer loop
vertex 117.746056 -33.791233 78.062302
vertex 117.746056 -33.791233 6.062303
vertex 117.746056 -37.391235 6.062303
endloop
endfacet
facet normal -1.000000 0.000000 0.000000
outer loop
vertex 117.746056 -37.391235 6.062303
vertex 117.746056 -37.391235 78.062302
vertex 117.746056 -33.791233 78.062302
endloop
endfacet
facet normal -1.000000 0.000000 0.000000
outer loop
vertex 117.746056 51.708755 120.062294
vertex 117.746056 51.708755 6.062303
vertex 117.746056 -2.919976 6.062303
endloop
endfacet
facet normal -1.000000 0.000000 0.000000
outer loop
vertex 117.746056 -33.791233 78.062302
vertex 117.746056 51.708755 120.062294
vertex 117.746056 -2.919976 6.062303
endloop
endfacet
facet normal -1.000000 0.000000 0.000000
outer loop
vertex 117.746056 -2.919976 6.062303
vertex 117.746056 -33.791233 6.062303
vertex 117.746056 -33.791233 78.062302
endloop
endfacet
facet normal -1.000000 0.000000 0.000000
outer loop
vertex 117.746056 51.708755 120.062294
vertex 117.746056 -33.791233 78.062302
vertex 117.746056 -33.791233 120.062294
endloop
endfacet
facet normal 0.000000 0.000000 -1.000000
outer loop
vertex 121.346046 -37.391235 6.062303
vertex 117.746056 -37.391235 6.062303
vertex 117.746056 -33.791233 6.062303
endloop
endfacet
facet normal 0.000000 0.000000 -1.000000
outer loop
vertex 114.746056 51.708755 6.062303
vertex 114.746056 55.308758 6.062303
vertex 117.746056 51.708755 6.062303
endloop
endfacet
facet normal 0.000000 0.000000 -1.000000
outer loop
vertex 121.346046 -37.391235 6.062303
vertex 117.746056 -2.919976 6.062303
vertex 117.746056 51.708755 6.062303
endloop
endfacet
facet normal 0.000000 0.000000 -1.000000
outer loop
vertex 117.746056 51.708755 6.062303
vertex 121.346046 55.308758 6.062303
vertex 121.346046 -37.391235 6.062303
endloop
endfacet
facet normal -0.000000 0.000000 -1.000000
outer loop
vertex 117.746056 -33.791233 6.062303
vertex 117.746056 -2.919976 6.062303
vertex 121.346046 -37.391235 6.062303
endloop
endfacet
facet normal 0.000000 0.000000 -1.000000
outer loop
vertex 114.746056 55.308758 6.062303
vertex 121.346046 55.308758 6.062303
vertex 117.746056 51.708755 6.062303
endloop
endfacet
facet normal 0.000000 0.000000 0.000000
outer loop
vertex -57.753944 6.708765 66.062302
vertex -57.753944 6.708765 31.562304
vertex -57.753944 6.708765 31.562304
endloop
endfacet
facet normal 0.000000 0.000000 0.000000
outer loop
vertex -57.753944 6.708765 66.062302
vertex -57.753944 6.708765 31.562304
vertex -57.753944 6.708765 66.062302
endloop
endfacet
facet normal 0.000000 0.000000 0.000000
outer loop
vertex -61.353943 6.708765 31.562304
vertex -61.353943 6.708765 66.062302
vertex -61.353943 6.708765 66.062302
endloop
endfacet
facet normal 0.000000 0.000000 0.000000
outer loop
vertex -61.353943 6.708765 31.562304
vertex -61.353943 6.708765 66.062302
vertex -61.353943 6.708765 31.562304
endloop
endfacet
facet normal 0.000000 0.000000 1.000000
outer loop
vertex -57.753944 6.708765 31.562304
vertex -57.753944 42.708755 31.562304
vertex -61.353943 42.708755 31.562304
endloop
endfacet
facet normal 0.000000 0.000000 1.000000
outer loop
vertex -61.353943 42.708755 31.562304
vertex -61.353943 6.708765 31.562304
vertex -57.753944 6.708765 31.562304
endloop
endfacet
facet normal 0.000000 -1.000000 0.000000
outer loop
vertex -57.753944 42.708755 31.562304
vertex -57.753944 42.708755 66.062302
vertex -61.353943 42.708755 66.062302
endloop
endfacet
facet normal 0.000000 -1.000000 0.000000
outer loop
vertex -61.353943 42.708755 66.062302
vertex -61.353943 42.708755 31.562304
vertex -57.753944 42.708755 31.562304
endloop
endfacet
facet normal 0.000000 0.000000 -1.000000
outer loop
vertex -57.753944 42.708755 66.062302
vertex -57.753944 6.708765 66.062302
vertex -61.353943 6.708765 66.062302
endloop
endfacet
facet normal 0.000000 0.000000 -1.000000
outer loop
vertex -61.353943 6.708765 66.062302
vertex -61.353943 42.708755 66.062302
vertex -57.753944 42.708755 66.062302
endloop
endfacet
facet normal -0.240577 0.000000 0.970630
outer loop
vertex 117.746056 51.708755 120.062294
vertex 117.746056 -33.791233 120.062294
vertex 121.346046 -37.391235 120.954559
endloop
endfacet
facet normal -0.240583 -0.000011 0.970628
outer loop
vertex 121.346046 -37.391235 120.954559
vertex 117.746056 -33.791233 120.062294
vertex -57.753944 -33.791233 76.562302
endloop
endfacet
facet normal -0.240583 0.000009 0.970629
outer loop
vertex -57.753944 -33.791233 76.562302
vertex -61.353943 -37.391235 75.670029
vertex 121.346046 -37.391235 120.954559
endloop
endfacet
facet normal -0.240583 0.000011 0.970628
outer loop
vertex 117.746056 51.708755 120.062294
vertex 121.346046 55.308758 120.954559
vertex -61.353943 55.308758 75.670029
endloop
endfacet
facet normal -0.240583 -0.000009 0.970629
outer loop
vertex -61.353943 55.308758 75.670029
vertex -57.753944 51.708755 76.562302
vertex 117.746056 51.708755 120.062294
endloop
endfacet
facet normal -0.240575 0.000000 0.970631
outer loop
vertex 121.346046 -37.391235 120.954559
vertex 121.346046 55.308758 120.954559
vertex 117.746056 51.708755 120.062294
endloop
endfacet
facet normal -0.240574 0.000000 0.970631
outer loop
vertex -61.353943 -37.391235 75.670029
vertex -57.753944 -33.791233 76.562302
vertex -57.753944 51.708755 76.562302
endloop
endfacet
facet normal -0.240575 0.000000 0.970631
outer loop
vertex -57.753944 51.708755 76.562302
vertex -61.353943 55.308758 75.670029
vertex -61.353943 -37.391235 75.670029
endloop
endfacet
facet normal 0.000000 0.000000 0.000000
outer loop
vertex -38.253944 -33.791233 11.462302
vertex -38.253944 -37.391235 11.462302
vertex -38.253944 -37.391235 11.462302
endloop
endfacet
facet normal 0.000000 0.000000 0.000000
outer loop
vertex -38.253944 -33.791233 11.462302
vertex -38.253944 -37.391235 11.462302
vertex -38.253944 -33.791233 11.462302
endloop
endfacet
facet normal 0.000000 0.000000 0.000000
outer loop
vertex -38.253944 -37.391235 66.062302
vertex -38.253944 -33.791233 66.062302
vertex -38.253944 -33.791233 66.062302
endloop
endfacet
facet normal 0.000000 0.000000 0.000000
outer loop
vertex -38.253944 -37.391235 66.062302
vertex -38.253944 -33.791233 66.062302
vertex -38.253944 -37.391235 66.062302
endloop
endfacet
facet normal 0.000000 0.000000 0.000000
outer loop
vertex -38.253944 -33.791233 66.062302
vertex -38.253944 -33.791233 11.462302
vertex -38.253944 -33.791233 11.462302
endloop
endfacet
facet normal 0.000000 0.000000 0.000000
outer loop
vertex -38.253944 -33.791233 66.062302
vertex -38.253944 -33.791233 11.462302
vertex -38.253944 -33.791233 66.062302
endloop
endfacet
facet normal 0.000000 0.000000 0.000000
outer loop
vertex -38.253944 -37.391235 11.462302
vertex -38.253944 -37.391235 66.062302
vertex -38.253944 -37.391235 66.062302
endloop
endfacet
facet normal 0.000000 0.000000 0.000000
outer loop
vertex -38.253944 -37.391235 11.462302
vertex -38.253944 -37.391235 66.062302
vertex -38.253944 -37.391235 11.462302
endloop
endfacet
facet normal 0.000000 0.000000 0.000000
outer loop
vertex -38.253944 -33.791233 66.062302
vertex -38.253944 -33.791233 11.462302
vertex -38.253944 -33.791233 11.462302
endloop
endfacet
facet normal 0.000000 0.000000 0.000000
outer loop
vertex -38.253944 -33.791233 66.062302
vertex -38.253944 -33.791233 11.462302
vertex -38.253944 -33.791233 66.062302
endloop
endfacet
facet normal 0.000000 0.000000 0.000000
outer loop
vertex -38.253944 -37.391235 11.462302
vertex -38.253944 -37.391235 66.062302
vertex -38.253944 -37.391235 66.062302
endloop
endfacet
facet normal 0.000000 0.000000 0.000000
outer loop
vertex -38.253944 -37.391235 11.462302
vertex -38.253944 -37.391235 66.062302
vertex -38.253944 -37.391235 11.462302
endloop
endfacet
facet normal 0.000000 0.000000 0.000000
outer loop
vertex -38.253944 -37.391235 11.462302
vertex -38.253944 -37.391235 66.062302
vertex -38.253944 -37.391235 66.062302
endloop
endfacet
facet normal 0.000000 0.000000 0.000000
outer loop
vertex -38.253944 -37.391235 11.462302
vertex -38.253944 -37.391235 66.062302
vertex -38.253944 -37.391235 11.462302
endloop
endfacet
facet normal 0.000000 0.000000 0.000000
outer loop
vertex -38.253944 -33.791233 66.062302
vertex -38.253944 -33.791233 11.462302
vertex -38.253944 -33.791233 11.462302
endloop
endfacet
facet normal 0.000000 0.000000 0.000000
outer loop
vertex -38.253944 -33.791233 66.062302
vertex -38.253944 -33.791233 11.462302
vertex -38.253944 -33.791233 66.062302
endloop
endfacet
facet normal 0.000000 0.000000 0.000000
outer loop
vertex -38.253944 -33.791233 11.462302
vertex -38.253944 -37.391235 11.462302
vertex -38.253944 -37.391235 11.462302
endloop
endfacet
facet normal 0.000000 0.000000 0.000000
outer loop
vertex -38.253944 -33.791233 11.462302
vertex -38.253944 -37.391235 11.462302
vertex -38.253944 -33.791233 11.462302
endloop
endfacet
facet normal 0.000000 0.000000 0.000000
outer loop
vertex -38.253944 -37.391235 66.062302
vertex -38.253944 -33.791233 66.062302
vertex -38.253944 -33.791233 66.062302
endloop
endfacet
facet normal 0.000000 0.000000 0.000000
outer loop
vertex -38.253944 -37.391235 66.062302
vertex -38.253944 -33.791233 66.062302
vertex -38.253944 -37.391235 66.062302
endloop
endfacet
facet normal 0.000000 0.000000 0.000000
outer loop
vertex -38.253944 -37.391235 66.062302
vertex -38.253944 -33.791233 66.062302
vertex -38.253944 -33.791233 66.062302
endloop
endfacet
facet normal 0.000000 0.000000 0.000000
outer loop
vertex -38.253944 -37.391235 66.062302
vertex -38.253944 -33.791233 66.062302
vertex -38.253944 -37.391235 66.062302
endloop
endfacet
facet normal 0.000000 0.000000 0.000000
outer loop
vertex -38.253944 -33.791233 11.462302
vertex -38.253944 -37.391235 11.462302
vertex -38.253944 -37.391235 11.462302
endloop
endfacet
facet normal 0.000000 0.000000 0.000000
outer loop
vertex -38.253944 -33.791233 11.462302
vertex -38.253944 -37.391235 11.462302
vertex -38.253944 -33.791233 11.462302
endloop
endfacet
facet normal 0.000000 0.000000 -1.000000
outer loop
vertex -38.253944 -33.791233 11.462302
vertex -38.253944 -37.391235 11.462302
vertex -57.753944 -37.391235 11.462302
endloop
endfacet
facet normal 0.000000 0.000000 -1.000000
outer loop
vertex -38.253944 -33.791233 11.462302
vertex -57.753944 -37.391235 11.462302
vertex -57.753944 -33.791233 11.462302
endloop
endfacet
facet normal 0.000000 0.000000 0.000000
outer loop
vertex -38.253944 -37.391235 11.462302
vertex -38.253944 -37.391235 66.062302
vertex -38.253944 -37.391235 66.062302
endloop
endfacet
facet normal 0.000000 0.000000 0.000000
outer loop
vertex -38.253944 -37.391235 11.462302
vertex -38.253944 -37.391235 66.062302
vertex -38.253944 -37.391235 11.462302
endloop
endfacet
facet normal 0.000000 0.000000 0.000000
outer loop
vertex -38.253944 -33.791233 66.062302
vertex -38.253944 -33.791233 11.462302
vertex -38.253944 -33.791233 11.462302
endloop
endfacet
facet normal 0.000000 0.000000 0.000000
outer loop
vertex -38.253944 -33.791233 66.062302
vertex -38.253944 -33.791233 11.462302
vertex -38.253944 -33.791233 66.062302
endloop
endfacet
facet normal 0.000000 0.000000 1.000000
outer loop
vertex -38.253944 -37.391235 66.062302
vertex -38.253944 -33.791233 66.062302
vertex -57.753944 -33.791233 66.062302
endloop
endfacet
facet normal 0.000000 0.000000 1.000000
outer loop
vertex -38.253944 -37.391235 66.062302
vertex -57.753944 -33.791233 66.062302
vertex -57.753944 -37.391235 66.062302
endloop
endfacet
facet normal -1.000000 0.000000 0.000000
outer loop
vertex -38.253944 -37.391235 66.062302
vertex -38.253944 -33.791233 66.062302
vertex -38.253944 -33.791233 11.462302
endloop
endfacet
facet normal -1.000000 0.000000 0.000000
outer loop
vertex -38.253944 -37.391235 66.062302
vertex -38.253944 -33.791233 11.462302
vertex -38.253944 -37.391235 11.462302
endloop
endfacet
facet normal 0.000000 0.000000 -1.000000
outer loop
vertex -57.753944 6.708765 31.562304
vertex -61.353943 6.708765 31.562304
vertex -61.353943 42.708759 31.562304
endloop
endfacet
facet normal 0.000000 0.000000 -1.000000
outer loop
vertex -57.753944 6.708765 31.562304
vertex -61.353943 42.708759 31.562304
vertex -57.753944 42.708759 31.562304
endloop
endfacet
facet normal 0.000000 0.000000 0.000000
outer loop
vertex -61.353943 6.708765 66.062302
vertex -57.753944 6.708765 66.062302
vertex -57.753944 6.708765 66.062302
endloop
endfacet
facet normal 0.000000 0.000000 0.000000
outer loop
vertex -61.353943 6.708765 66.062302
vertex -57.753944 6.708765 66.062302
vertex -61.353943 6.708765 66.062302
endloop
endfacet
facet normal 0.000000 0.000000 0.000000
outer loop
vertex -57.753944 6.708765 31.562304
vertex -61.353943 6.708765 31.562304
vertex -61.353943 6.708765 31.562304
endloop
endfacet
facet normal 0.000000 0.000000 0.000000
outer loop
vertex -57.753944 6.708765 31.562304
vertex -61.353943 6.708765 31.562304
vertex -57.753944 6.708765 31.562304
endloop
endfacet
facet normal 0.000000 0.000000 1.000000
outer loop
vertex -61.353943 6.708765 66.062302
vertex -57.753944 6.708765 66.062302
vertex -57.753944 42.708759 66.062302
endloop
endfacet
facet normal 0.000000 0.000000 1.000000
outer loop
vertex -61.353943 6.708765 66.062302
vertex -57.753944 42.708759 66.062302
vertex -61.353943 42.708759 66.062302
endloop
endfacet
facet normal 0.000000 1.000000 0.000000
outer loop
vertex -61.353943 6.708765 31.562304
vertex -61.353943 6.708765 66.062302
vertex -57.753944 6.708765 66.062302
endloop
endfacet
facet normal 0.000000 1.000000 0.000000
outer loop
vertex -61.353943 6.708765 31.562304
vertex -57.753944 6.708765 66.062302
vertex -57.753944 6.708765 31.562304
endloop
endfacet
facet normal 0.000000 0.000000 -1.000000
outer loop
vertex -21.753944 51.708755 31.562304
vertex -21.753944 55.308758 31.562304
vertex 14.246056 55.308758 31.562304
endloop
endfacet
facet normal 0.000000 0.000000 -1.000000
outer loop
vertex -21.753944 51.708755 31.562304
vertex 14.246056 55.308758 31.562304
vertex 14.246056 51.708755 31.562304
endloop
endfacet
facet normal -1.000000 0.000000 0.000000
outer loop
vertex -21.753944 55.308758 76.562302
vertex -21.753944 55.308758 31.562304
vertex -21.753944 51.708755 31.562304
endloop
endfacet
facet normal -1.000000 0.000000 0.000000
outer loop
vertex -21.753944 55.308758 76.562302
vertex -21.753944 51.708755 31.562304
vertex -21.753944 51.708755 76.562302
endloop
endfacet
facet normal 0.000000 0.000000 -1.000000
outer loop
vertex 17.246056 51.708755 31.562304
vertex 17.246056 55.308758 31.562304
vertex 53.246056 55.308758 31.562304
endloop
endfacet
facet normal 0.000000 0.000000 -1.000000
outer loop
vertex 17.246056 51.708755 31.562304
vertex 53.246056 55.308758 31.562304
vertex 53.246056 51.708755 31.562304
endloop
endfacet
facet normal 0.000000 0.000000 1.000000
outer loop
vertex 93.146049 -33.791233 78.062302
vertex 93.146049 -37.391235 78.062302
vertex 117.746056 -37.391235 78.062302
endloop
endfacet
facet normal 0.000000 0.000000 1.000000
outer loop
vertex 93.146049 -33.791233 78.062302
vertex 117.746056 -37.391235 78.062302
vertex 117.746056 -33.791233 78.062302
endloop
endfacet
facet normal -1.000000 0.000000 0.000000
outer loop
vertex 93.146049 -37.391235 78.062302
vertex 93.146049 -33.791233 78.062302
vertex 93.146049 -33.791233 6.062303
endloop
endfacet
facet normal -1.000000 0.000000 0.000000
outer loop
vertex 93.146049 -37.391235 78.062302
vertex 93.146049 -33.791233 6.062303
vertex 93.146049 -37.391235 6.062303
endloop
endfacet
facet normal 0.000000 0.000000 0.000000
outer loop
vertex 95.246056 55.308758 6.062303
vertex 95.246056 55.308758 76.562302
vertex 95.246056 55.308758 76.562302
endloop
endfacet
facet normal 0.000000 0.000000 0.000000
outer loop
vertex 95.246056 55.308758 6.062303
vertex 95.246056 55.308758 76.562302
vertex 95.246056 55.308758 6.062303
endloop
endfacet
facet normal 0.000000 0.000000 0.000000
outer loop
vertex 95.246056 51.708755 76.562302
vertex 95.246056 51.708755 6.062303
vertex 95.246056 51.708755 6.062303
endloop
endfacet
facet normal 0.000000 0.000000 0.000000
outer loop
vertex 95.246056 51.708755 76.562302
vertex 95.246056 51.708755 6.062303
vertex 95.246056 51.708755 76.562302
endloop
endfacet
facet normal 0.000000 0.000000 1.000000
outer loop
vertex 95.246056 55.308758 76.562302
vertex 95.246056 51.708755 76.562302
vertex 114.746056 51.708755 76.562302
endloop
endfacet
facet normal 0.000000 0.000000 1.000000
outer loop
vertex 95.246056 55.308758 76.562302
vertex 114.746056 51.708755 76.562302
vertex 114.746056 55.308758 76.562302
endloop
endfacet
facet normal 1.000000 0.000000 0.000000
outer loop
vertex 95.246056 51.708755 6.062303
vertex 95.246056 55.308758 6.062303
vertex 95.246056 55.308758 76.562302
endloop
endfacet
facet normal 1.000000 0.000000 0.000000
outer loop
vertex 95.246056 51.708755 6.062303
vertex 95.246056 55.308758 76.562302
vertex 95.246056 51.708755 76.562302
endloop
endfacet
facet normal 1.000000 0.000000 0.000000
outer loop
vertex 17.246056 51.708755 31.562304
vertex 17.246056 55.308758 31.562304
vertex 17.246056 55.308758 76.562302
endloop
endfacet
facet normal 1.000000 0.000000 0.000000
outer loop
vertex 17.246056 51.708755 31.562304
vertex 17.246056 55.308758 76.562302
vertex 17.246056 51.708755 76.562302
endloop
endfacet
endsolid CommaHouseBedroomRoomBox
solid CommaHouseBedroomWindow1
facet normal 0.000000 -1.000000 0.000000
outer loop
vertex 17.246056 51.708755 76.562302
vertex 17.246056 51.708755 31.562304
vertex 53.246056 51.708755 31.562304
endloop
endfacet
facet normal 0.000000 -1.000000 0.000000
outer loop
vertex 17.246056 51.708755 76.562302
vertex 53.246056 51.708755 31.562304
vertex 53.246056 51.708755 76.562302
endloop
endfacet
facet normal 1.000000 0.000000 0.000000
outer loop
vertex 53.246056 51.708755 76.562302
vertex 53.246056 51.708755 31.562304
vertex 53.246056 55.308758 31.562304
endloop
endfacet
facet normal 1.000000 0.000000 0.000000
outer loop
vertex 53.246056 55.308758 31.562304
vertex 53.246056 55.308758 76.562302
vertex 53.246056 51.708755 76.562302
endloop
endfacet
facet normal 0.000000 1.000000 0.000000
outer loop
vertex 17.246056 55.308758 31.562304
vertex 17.246056 55.308758 76.562302
vertex 53.246056 55.308758 76.562302
endloop
endfacet
facet normal 0.000000 1.000000 0.000000
outer loop
vertex 17.246056 55.308758 31.562304
vertex 53.246056 55.308758 76.562302
vertex 53.246056 55.308758 31.562304
endloop
endfacet
facet normal 0.000000 0.000000 1.000000
outer loop
vertex 53.246056 55.308758 76.562302
vertex 17.246056 55.308758 76.562302
vertex 17.246056 51.708755 76.562302
endloop
endfacet
facet normal 0.000000 0.000000 1.000000
outer loop
vertex 53.246056 55.308758 76.562302
vertex 17.246056 51.708755 76.562302
vertex 53.246056 51.708755 76.562302
endloop
endfacet
facet normal -1.000000 0.000000 0.000000
outer loop
vertex 17.246056 55.308758 76.562302
vertex 17.246056 55.308758 31.562304
vertex 17.246056 51.708755 31.562304
endloop
endfacet
facet normal -1.000000 0.000000 0.000000
outer loop
vertex 17.246056 55.308758 76.562302
vertex 17.246056 51.708755 31.562304
vertex 17.246056 51.708755 76.562302
endloop
endfacet
facet normal 0.000000 0.000000 -1.000000
outer loop
vertex 17.246056 51.708755 31.562304
vertex 17.246056 55.308758 31.562304
vertex 53.246056 55.308758 31.562304
endloop
endfacet
facet normal 0.000000 0.000000 -1.000000
outer loop
vertex 17.246056 51.708755 31.562304
vertex 53.246056 55.308758 31.562304
vertex 53.246056 51.708755 31.562304
endloop
endfacet
endsolid CommaHouseBedroomWindow1
solid CommaHouseBedroomWindow2
facet normal 0.000000 -1.000000 0.000000
outer loop
vertex -21.753944 51.708755 76.562302
vertex -21.753944 51.708755 31.562304
vertex 14.246056 51.708755 31.562304
endloop
endfacet
facet normal 0.000000 -1.000000 0.000000
outer loop
vertex -21.753944 51.708755 76.562302
vertex 14.246056 51.708755 31.562304
vertex 14.246056 51.708755 76.562302
endloop
endfacet
facet normal 1.000000 0.000000 0.000000
outer loop
vertex 14.246056 51.708755 76.562302
vertex 14.246056 51.708755 31.562304
vertex 14.246056 55.308758 31.562304
endloop
endfacet
facet normal 1.000000 0.000000 0.000000
outer loop
vertex 14.246056 55.308758 31.562304
vertex 14.246056 55.308758 76.562302
vertex 14.246056 51.708755 76.562302
endloop
endfacet
facet normal 0.000000 1.000000 0.000000
outer loop
vertex -21.753944 55.308758 31.562304
vertex -21.753944 55.308758 76.562302
vertex 14.246056 55.308758 76.562302
endloop
endfacet
facet normal 0.000000 1.000000 0.000000
outer loop
vertex -21.753944 55.308758 31.562304
vertex 14.246056 55.308758 76.562302
vertex 14.246056 55.308758 31.562304
endloop
endfacet
facet normal 0.000000 0.000000 1.000000
outer loop
vertex -21.753944 51.708755 76.562302
vertex 14.246056 51.708755 76.562302
vertex 14.246056 55.308758 76.562302
endloop
endfacet
facet normal 0.000000 0.000000 1.000000
outer loop
vertex -21.753944 51.708755 76.562302
vertex 14.246056 55.308758 76.562302
vertex -21.753944 55.308758 76.562302
endloop
endfacet
facet normal -1.000000 0.000000 0.000000
outer loop
vertex -21.753944 55.308758 76.562302
vertex -21.753944 55.308758 31.562304
vertex -21.753944 51.708755 31.562304
endloop
endfacet
facet normal -1.000000 0.000000 0.000000
outer loop
vertex -21.753944 55.308758 76.562302
vertex -21.753944 51.708755 31.562304
vertex -21.753944 51.708755 76.562302
endloop
endfacet
facet normal 0.000000 0.000000 -1.000000
outer loop
vertex 14.246056 51.708755 31.562304
vertex -21.753944 51.708755 31.562304
vertex -21.753944 55.308758 31.562304
endloop
endfacet
facet normal 0.000000 0.000000 -1.000000
outer loop
vertex 14.246056 51.708755 31.562304
vertex -21.753944 55.308758 31.562304
vertex 14.246056 55.308758 31.562304
endloop
endfacet
endsolid CommaHouseBedroomWindow2
solid CommaHouseBedroomWindow3
facet normal -1.000000 0.000000 0.000000
outer loop
vertex -61.353943 6.708765 31.562304
vertex -61.353943 6.708765 66.062302
vertex -61.353943 42.708759 66.062302
endloop
endfacet
facet normal -1.000000 0.000000 0.000000
outer loop
vertex -61.353943 6.708765 31.562304
vertex -61.353943 42.708759 66.062302
vertex -61.353943 42.708759 31.562304
endloop
endfacet
facet normal 0.000000 1.000000 0.000000
outer loop
vertex -57.753944 42.708759 66.062302
vertex -57.753944 42.708759 31.562304
vertex -61.353943 42.708759 31.562304
endloop
endfacet
facet normal 0.000000 1.000000 0.000000
outer loop
vertex -61.353943 42.708759 31.562304
vertex -61.353943 42.708759 66.062302
vertex -57.753944 42.708759 66.062302
endloop
endfacet
facet normal 1.000000 0.000000 0.000000
outer loop
vertex -57.753944 6.708765 66.062302
vertex -57.753944 6.708765 31.562304
vertex -57.753944 42.708759 31.562304
endloop
endfacet
facet normal 1.000000 0.000000 0.000000
outer loop
vertex -57.753944 6.708765 66.062302
vertex -57.753944 42.708759 31.562304
vertex -57.753944 42.708759 66.062302
endloop
endfacet
facet normal 0.000000 0.000000 1.000000
outer loop
vertex -61.353943 6.708765 66.062302
vertex -57.753944 6.708765 66.062302
vertex -57.753944 42.708759 66.062302
endloop
endfacet
facet normal 0.000000 0.000000 1.000000
outer loop
vertex -61.353943 6.708765 66.062302
vertex -57.753944 42.708759 66.062302
vertex -61.353943 42.708759 66.062302
endloop
endfacet
facet normal 0.000000 -1.000000 0.000000
outer loop
vertex -57.753944 6.708765 66.062302
vertex -61.353943 6.708765 66.062302
vertex -61.353943 6.708765 31.562304
endloop
endfacet
facet normal 0.000000 -1.000000 0.000000
outer loop
vertex -57.753944 6.708765 66.062302
vertex -61.353943 6.708765 31.562304
vertex -57.753944 6.708765 31.562304
endloop
endfacet
facet normal 0.000000 0.000000 -1.000000
outer loop
vertex -61.353943 42.708759 31.562304
vertex -57.753944 42.708759 31.562304
vertex -57.753944 6.708765 31.562304
endloop
endfacet
facet normal 0.000000 0.000000 -1.000000
outer loop
vertex -61.353943 42.708759 31.562304
vertex -57.753944 6.708765 31.562304
vertex -61.353943 6.708765 31.562304
endloop
endfacet
endsolid CommaHouseBedroomWindow3
