solid Door_1_Close
facet normal 0.000000 0.000000 -1.000000
outer loop
vertex 52.200588 3.014767 3.353785
vertex 61.200588 3.014767 3.353785
vertex 61.200588 2.714767 3.353785
endloop
endfacet
facet normal 0.000000 0.000000 -1.000000
outer loop
vertex 52.200588 3.014767 3.353785
vertex 61.200588 2.714767 3.353785
vertex 52.200588 2.714767 3.353785
endloop
endfacet
facet normal 0.000000 0.000000 1.000000
outer loop
vertex 61.200588 3.014767 27.353785
vertex 52.200588 3.014767 27.353785
vertex 52.200588 2.714767 27.353785
endloop
endfacet
facet normal 0.000000 0.000000 1.000000
outer loop
vertex 61.200588 3.014767 27.353785
vertex 52.200588 2.714767 27.353785
vertex 61.200588 2.714767 27.353785
endloop
endfacet
facet normal 0.000000 1.000000 0.000000
outer loop
vertex 61.200588 3.014767 3.353785
vertex 52.200588 3.014767 3.353785
vertex 52.200588 3.014767 27.353785
endloop
endfacet
facet normal 0.000000 1.000000 0.000000
outer loop
vertex 52.200588 3.014767 27.353785
vertex 61.200588 3.014767 27.353785
vertex 61.200588 3.014767 3.353785
endloop
endfacet
facet normal 0.000000 -1.000000 0.000000
outer loop
vertex 61.200588 2.714767 3.353785
vertex 52.200588 2.714767 27.353785
vertex 52.200588 2.714767 3.353785
endloop
endfacet
facet normal 0.000000 -1.000000 0.000000
outer loop
vertex 52.200588 2.714767 27.353785
vertex 61.200588 2.714767 3.353785
vertex 61.200588 2.714767 27.353785
endloop
endfacet
facet normal -1.000000 0.000000 0.000000
outer loop
vertex 52.200588 3.014767 27.353785
vertex 52.200588 3.014767 3.353785
vertex 52.200588 2.714767 3.353785
endloop
endfacet
facet normal -1.000000 0.000000 0.000000
outer loop
vertex 52.200588 3.014767 27.353785
vertex 52.200588 2.714767 3.353785
vertex 52.200588 2.714767 27.353785
endloop
endfacet
facet normal 1.000000 0.000000 0.000000
outer loop
vertex 61.200588 3.014767 3.353785
vertex 61.200588 3.014767 27.353785
vertex 61.200588 2.714767 27.353785
endloop
endfacet
facet normal 1.000000 0.000000 0.000000
outer loop
vertex 61.200588 3.014767 3.353785
vertex 61.200588 2.714767 27.353785
vertex 61.200588 2.714767 3.353785
endloop
endfacet
endsolid Door_1_Close
solid Door_2_Close
facet normal 0.000000 -1.000000 0.000000
outer loop
vertex 60.200588 31.214764 3.353785
vertex 53.700588 31.214764 26.853785
vertex 53.700588 31.214764 3.353785
endloop
endfacet
facet normal 0.000000 -1.000000 0.000000
outer loop
vertex 53.700588 31.214764 26.853785
vertex 60.200588 31.214764 3.353785
vertex 60.200588 31.214764 26.853785
endloop
endfacet
facet normal 0.000000 1.000000 0.000000
outer loop
vertex 60.200588 31.514763 3.353785
vertex 53.700588 31.514763 3.353785
vertex 53.700588 31.514763 26.853785
endloop
endfacet
facet normal 0.000000 1.000000 0.000000
outer loop
vertex 53.700588 31.514763 26.853785
vertex 60.200588 31.514763 26.853785
vertex 60.200588 31.514763 3.353785
endloop
endfacet
facet normal 0.000000 0.000000 1.000000
outer loop
vertex 60.200588 31.514763 26.853785
vertex 53.700588 31.514763 26.853785
vertex 53.700588 31.214764 26.853785
endloop
endfacet
facet normal 0.000000 0.000000 1.000000
outer loop
vertex 60.200588 31.514763 26.853785
vertex 53.700588 31.214764 26.853785
vertex 60.200588 31.214764 26.853785
endloop
endfacet
facet normal 1.000000 0.000000 0.000000
outer loop
vertex 60.200588 31.514763 3.353785
vertex 60.200588 31.514763 26.853785
vertex 60.200588 31.214764 26.853785
endloop
endfacet
facet normal 1.000000 0.000000 0.000000
outer loop
vertex 60.200588 31.514763 3.353785
vertex 60.200588 31.214764 26.853785
vertex 60.200588 31.214764 3.353785
endloop
endfacet
facet normal 0.000000 0.000000 -1.000000
outer loop
vertex 53.700588 31.514763 3.353785
vertex 60.200588 31.514763 3.353785
vertex 60.200588 31.214764 3.353785
endloop
endfacet
facet normal 0.000000 0.000000 -1.000000
outer loop
vertex 53.700588 31.514763 3.353785
vertex 60.200588 31.214764 3.353785
vertex 53.700588 31.214764 3.353785
endloop
endfacet
facet normal -1.000000 0.000000 0.000000
outer loop
vertex 53.700588 31.514763 26.853785
vertex 53.700588 31.514763 3.353785
vertex 53.700588 31.214764 3.353785
endloop
endfacet
facet normal -1.000000 0.000000 0.000000
outer loop
vertex 53.700588 31.514763 26.853785
vertex 53.700588 31.214764 3.353785
vertex 53.700588 31.214764 26.853785
endloop
endfacet
endsolid Door_2_Close
solid Door_3_Close
facet normal -1.000000 0.000000 0.000000
outer loop
vertex 2.700587 2.714767 23.353785
vertex 2.700587 2.714767 5.153785
vertex 2.700587 2.414764 5.153785
endloop
endfacet
facet normal -1.000000 0.000000 0.000000
outer loop
vertex 2.700587 2.714767 23.353785
vertex 2.700587 2.414764 5.153785
vertex 2.700587 2.414764 23.353785
endloop
endfacet
facet normal 0.000000 0.000000 1.000000
outer loop
vertex 9.200587 2.714767 23.353785
vertex 2.700587 2.714767 23.353785
vertex 2.700587 2.414764 23.353785
endloop
endfacet
facet normal 0.000000 0.000000 1.000000
outer loop
vertex 9.200587 2.714767 23.353785
vertex 2.700587 2.414764 23.353785
vertex 9.200587 2.414764 23.353785
endloop
endfacet
facet normal 0.000000 1.000000 0.000000
outer loop
vertex 9.200587 2.714767 5.153785
vertex 2.700587 2.714767 5.153785
vertex 2.700587 2.714767 23.353785
endloop
endfacet
facet normal 0.000000 1.000000 0.000000
outer loop
vertex 2.700587 2.714767 23.353785
vertex 9.200587 2.714767 23.353785
vertex 9.200587 2.714767 5.153785
endloop
endfacet
facet normal 0.000000 -1.000000 0.000000
outer loop
vertex 9.200587 2.414764 5.153785
vertex 2.700587 2.414764 23.353785
vertex 2.700587 2.414764 5.153785
endloop
endfacet
facet normal 0.000000 -1.000000 0.000000
outer loop
vertex 2.700587 2.414764 23.353785
vertex 9.200587 2.414764 5.153785
vertex 9.200587 2.414764 23.353785
endloop
endfacet
facet normal 1.000000 0.000000 0.000000
outer loop
vertex 9.200587 2.714767 5.153785
vertex 9.200587 2.714767 23.353785
vertex 9.200587 2.414764 23.353785
endloop
endfacet
facet normal 1.000000 0.000000 0.000000
outer loop
vertex 9.200587 2.714767 5.153785
vertex 9.200587 2.414764 23.353785
vertex 9.200587 2.414764 5.153785
endloop
endfacet
facet normal 0.000000 0.000000 -1.000000
outer loop
vertex 2.700587 2.714767 5.153785
vertex 9.200587 2.714767 5.153785
vertex 9.200587 2.414764 5.153785
endloop
endfacet
facet normal 0.000000 0.000000 -1.000000
outer loop
vertex 2.700587 2.714767 5.153785
vertex 9.200587 2.414764 5.153785
vertex 2.700587 2.414764 5.153785
endloop
endfacet
endsolid Door_3_Close
solid Window_1
facet normal 0.000000 1.000000 0.000000
outer loop
vertex 33.700588 31.514763 11.853785
vertex 27.700588 31.514763 11.853785
vertex 27.700588 31.514763 26.853785
endloop
endfacet
facet normal 0.000000 1.000000 0.000000
outer loop
vertex 27.700588 31.514763 26.853785
vertex 33.700588 31.514763 26.853785
vertex 33.700588 31.514763 11.853785
endloop
endfacet
facet normal 0.000000 -1.000000 0.000000
outer loop
vertex 33.700588 31.214764 11.853785
vertex 27.700588 31.214764 26.853785
vertex 27.700588 31.214764 11.853785
endloop
endfacet
facet normal 0.000000 -1.000000 0.000000
outer loop
vertex 27.700588 31.214764 26.853785
vertex 33.700588 31.214764 11.853785
vertex 33.700588 31.214764 26.853785
endloop
endfacet
facet normal -1.000000 0.000000 0.000000
outer loop
vertex 33.700588 31.514763 26.853785
vertex 33.700588 31.214764 11.853785
vertex 33.700588 31.214764 26.853785
endloop
endfacet
facet normal 0.000000 1.000000 0.000000
outer loop
vertex 39.700588 31.514763 11.853785
vertex 33.700588 31.514763 11.853785
vertex 33.700588 31.514763 26.853785
endloop
endfacet
facet normal 0.000000 1.000000 0.000000
outer loop
vertex 33.700588 31.514763 26.853785
vertex 39.700588 31.514763 26.853785
vertex 39.700588 31.514763 11.853785
endloop
endfacet
facet normal 0.000000 -1.000000 0.000000
outer loop
vertex 39.700588 31.214764 11.853785
vertex 33.700588 31.214764 26.853785
vertex 33.700588 31.214764 11.853785
endloop
endfacet
facet normal 0.000000 -1.000000 0.000000
outer loop
vertex 33.700588 31.214764 26.853785
vertex 39.700588 31.214764 11.853785
vertex 39.700588 31.214764 26.853785
endloop
endfacet
facet normal 1.000000 0.000000 0.000000
outer loop
vertex 33.700588 31.514763 11.853785
vertex 33.700588 31.514763 26.853785
vertex 33.700588 31.214764 26.853785
endloop
endfacet
facet normal 1.000000 0.000000 0.000000
outer loop
vertex 33.700588 31.514763 11.853785
vertex 33.700588 31.214764 26.853785
vertex 33.700588 31.214764 11.853785
endloop
endfacet
facet normal -1.000000 0.000000 0.000000
outer loop
vertex 33.700588 31.514763 26.853785
vertex 33.700588 31.514763 11.853785
vertex 33.700588 31.214764 11.853785
endloop
endfacet
facet normal 1.000000 0.000000 0.000000
outer loop
vertex 39.700588 31.514763 11.853785
vertex 39.700588 31.514763 26.853785
vertex 39.700588 31.214764 26.853785
endloop
endfacet
facet normal 1.000000 0.000000 0.000000
outer loop
vertex 39.700588 31.514763 11.853785
vertex 39.700588 31.214764 26.853785
vertex 39.700588 31.214764 11.853785
endloop
endfacet
facet normal 0.000000 0.000000 -1.000000
outer loop
vertex 33.700588 31.514763 11.853785
vertex 39.700588 31.514763 11.853785
vertex 39.700588 31.214764 11.853785
endloop
endfacet
facet normal 0.000000 0.000000 -1.000000
outer loop
vertex 33.700588 31.514763 11.853785
vertex 39.700588 31.214764 11.853785
vertex 33.700588 31.214764 11.853785
endloop
endfacet
facet normal 0.000000 0.000000 -1.000000
outer loop
vertex 27.700588 31.514763 11.853785
vertex 33.700588 31.514763 11.853785
vertex 33.700588 31.214764 11.853785
endloop
endfacet
facet normal 0.000000 0.000000 -1.000000
outer loop
vertex 27.700588 31.514763 11.853785
vertex 33.700588 31.214764 11.853785
vertex 27.700588 31.214764 11.853785
endloop
endfacet
facet normal -1.000000 0.000000 0.000000
outer loop
vertex 27.700588 31.514763 26.853785
vertex 27.700588 31.514763 11.853785
vertex 27.700588 31.214764 11.853785
endloop
endfacet
facet normal -1.000000 0.000000 0.000000
outer loop
vertex 27.700588 31.514763 26.853785
vertex 27.700588 31.214764 11.853785
vertex 27.700588 31.214764 26.853785
endloop
endfacet
facet normal 0.000000 0.000000 1.000000
outer loop
vertex 33.700588 31.514763 26.853785
vertex 27.700588 31.514763 26.853785
vertex 27.700588 31.214764 26.853785
endloop
endfacet
facet normal 0.000000 0.000000 1.000000
outer loop
vertex 33.700588 31.514763 26.853785
vertex 27.700588 31.214764 26.853785
vertex 33.700588 31.214764 26.853785
endloop
endfacet
facet normal 0.000000 0.000000 1.000000
outer loop
vertex 39.700588 31.514763 26.853785
vertex 33.700588 31.514763 26.853785
vertex 33.700588 31.214764 26.853785
endloop
endfacet
facet normal 0.000000 0.000000 1.000000
outer loop
vertex 39.700588 31.514763 26.853785
vertex 33.700588 31.214764 26.853785
vertex 39.700588 31.214764 26.853785
endloop
endfacet
endsolid Window_1
solid Window_2
facet normal 0.000000 1.000000 0.000000
outer loop
vertex 20.700588 31.514763 11.853785
vertex 14.700587 31.514763 11.853785
vertex 14.700587 31.514763 26.853785
endloop
endfacet
facet normal 0.000000 1.000000 0.000000
outer loop
vertex 14.700587 31.514763 26.853785
vertex 20.700588 31.514763 26.853785
vertex 20.700588 31.514763 11.853785
endloop
endfacet
facet normal 0.000000 -1.000000 0.000000
outer loop
vertex 20.700588 31.214764 11.853785
vertex 14.700587 31.214764 26.853785
vertex 14.700587 31.214764 11.853785
endloop
endfacet
facet normal 0.000000 -1.000000 0.000000
outer loop
vertex 14.700587 31.214764 26.853785
vertex 20.700588 31.214764 11.853785
vertex 20.700588 31.214764 26.853785
endloop
endfacet
facet normal 0.000000 1.000000 0.000000
outer loop
vertex 26.700588 31.514763 11.853785
vertex 20.700588 31.514763 11.853785
vertex 20.700588 31.514763 26.853785
endloop
endfacet
facet normal 0.000000 1.000000 0.000000
outer loop
vertex 20.700588 31.514763 26.853785
vertex 26.700588 31.514763 26.853785
vertex 26.700588 31.514763 11.853785
endloop
endfacet
facet normal 0.000000 -1.000000 0.000000
outer loop
vertex 26.700588 31.214764 11.853785
vertex 20.700588 31.214764 26.853785
vertex 20.700588 31.214764 11.853785
endloop
endfacet
facet normal 0.000000 -1.000000 0.000000
outer loop
vertex 20.700588 31.214764 26.853785
vertex 26.700588 31.214764 11.853785
vertex 26.700588 31.214764 26.853785
endloop
endfacet
facet normal 1.000000 0.000000 0.000000
outer loop
vertex 20.700588 31.514763 11.853785
vertex 20.700588 31.514763 26.853785
vertex 20.700588 31.214764 26.853785
endloop
endfacet
facet normal 1.000000 0.000000 0.000000
outer loop
vertex 20.700588 31.514763 11.853785
vertex 20.700588 31.214764 26.853785
vertex 20.700588 31.214764 11.853785
endloop
endfacet
facet normal -1.000000 0.000000 0.000000
outer loop
vertex 20.700588 31.514763 26.853785
vertex 20.700588 31.514763 11.853785
vertex 20.700588 31.214764 11.853785
endloop
endfacet
facet normal -1.000000 0.000000 0.000000
outer loop
vertex 20.700588 31.514763 26.853785
vertex 20.700588 31.214764 11.853785
vertex 20.700588 31.214764 26.853785
endloop
endfacet
facet normal 0.000000 0.000000 1.000000
outer loop
vertex 20.700588 31.514763 26.853785
vertex 14.700587 31.514763 26.853785
vertex 14.700587 31.214764 26.853785
endloop
endfacet
facet normal 0.000000 0.000000 1.000000
outer loop
vertex 20.700588 31.514763 26.853785
vertex 14.700587 31.214764 26.853785
vertex 20.700588 31.214764 26.853785
endloop
endfacet
facet normal 0.000000 0.000000 1.000000
outer loop
vertex 26.700588 31.514763 26.853785
vertex 20.700588 31.514763 26.853785
vertex 20.700588 31.214764 26.853785
endloop
endfacet
facet normal 0.000000 0.000000 1.000000
outer loop
vertex 26.700588 31.514763 26.853785
vertex 20.700588 31.214764 26.853785
vertex 26.700588 31.214764 26.853785
endloop
endfacet
facet normal 1.000000 0.000000 0.000000
outer loop
vertex 26.700588 31.514763 11.853785
vertex 26.700588 31.514763 26.853785
vertex 26.700588 31.214764 26.853785
endloop
endfacet
facet normal 1.000000 0.000000 0.000000
outer loop
vertex 26.700588 31.514763 11.853785
vertex 26.700588 31.214764 26.853785
vertex 26.700588 31.214764 11.853785
endloop
endfacet
facet normal -1.000000 0.000000 0.000000
outer loop
vertex 14.700587 31.514763 26.853785
vertex 14.700587 31.514763 11.853785
vertex 14.700587 31.214764 11.853785
endloop
endfacet
facet normal -1.000000 0.000000 0.000000
outer loop
vertex 14.700587 31.514763 26.853785
vertex 14.700587 31.214764 11.853785
vertex 14.700587 31.214764 26.853785
endloop
endfacet
facet normal 0.000000 0.000000 -1.000000
outer loop
vertex 20.700588 31.514763 11.853785
vertex 26.700588 31.514763 11.853785
vertex 26.700588 31.214764 11.853785
endloop
endfacet
facet normal 0.000000 0.000000 -1.000000
outer loop
vertex 20.700588 31.514763 11.853785
vertex 26.700588 31.214764 11.853785
vertex 20.700588 31.214764 11.853785
endloop
endfacet
facet normal 0.000000 0.000000 -1.000000
outer loop
vertex 14.700587 31.514763 11.853785
vertex 20.700588 31.514763 11.853785
vertex 20.700588 31.214764 11.853785
endloop
endfacet
facet normal 0.000000 0.000000 -1.000000
outer loop
vertex 14.700587 31.514763 11.853785
vertex 20.700588 31.214764 11.853785
vertex 14.700587 31.214764 11.853785
endloop
endfacet
endsolid Window_2
solid Window_3
facet normal -1.000000 0.000000 0.000000
outer loop
vertex 2.400587 22.214764 11.853785
vertex 2.400587 16.214767 11.853785
vertex 2.400587 16.214767 23.353785
endloop
endfacet
facet normal -1.000000 0.000000 0.000000
outer loop
vertex 2.400587 16.214767 23.353785
vertex 2.400587 22.214764 23.353785
vertex 2.400587 22.214764 11.853785
endloop
endfacet
facet normal 1.000000 0.000000 0.000000
outer loop
vertex 2.700587 22.214764 11.853785
vertex 2.700587 16.214767 23.353785
vertex 2.700587 16.214767 11.853785
endloop
endfacet
facet normal 1.000000 0.000000 0.000000
outer loop
vertex 2.700587 16.214767 23.353785
vertex 2.700587 22.214764 11.853785
vertex 2.700587 22.214764 23.353785
endloop
endfacet
facet normal -1.000000 0.000000 0.000000
outer loop
vertex 2.400587 28.214764 11.853785
vertex 2.400587 22.214764 11.853785
vertex 2.400587 22.214764 23.353785
endloop
endfacet
facet normal -1.000000 0.000000 0.000000
outer loop
vertex 2.400587 22.214764 23.353785
vertex 2.400587 28.214764 23.353785
vertex 2.400587 28.214764 11.853785
endloop
endfacet
facet normal 1.000000 0.000000 0.000000
outer loop
vertex 2.700587 28.214764 11.853785
vertex 2.700587 22.214764 23.353785
vertex 2.700587 22.214764 11.853785
endloop
endfacet
facet normal 1.000000 0.000000 0.000000
outer loop
vertex 2.700587 22.214764 23.353785
vertex 2.700587 28.214764 11.853785
vertex 2.700587 28.214764 23.353785
endloop
endfacet
facet normal 0.000000 1.000000 0.000000
outer loop
vertex 2.400587 22.214764 11.853785
vertex 2.400587 22.214764 23.353785
vertex 2.700587 22.214764 23.353785
endloop
endfacet
facet normal 0.000000 1.000000 0.000000
outer loop
vertex 2.400587 22.214764 11.853785
vertex 2.700587 22.214764 23.353785
vertex 2.700587 22.214764 11.853785
endloop
endfacet
facet normal 0.000000 -1.000000 0.000000
outer loop
vertex 2.400587 22.214764 23.353785
vertex 2.400587 22.214764 11.853785
vertex 2.700587 22.214764 11.853785
endloop
endfacet
facet normal 0.000000 -1.000000 0.000000
outer loop
vertex 2.400587 22.214764 23.353785
vertex 2.700587 22.214764 11.853785
vertex 2.700587 22.214764 23.353785
endloop
endfacet
facet normal 0.000000 0.000000 -1.000000
outer loop
vertex 2.400587 22.214764 11.853785
vertex 2.400587 28.214764 11.853785
vertex 2.700587 28.214764 11.853785
endloop
endfacet
facet normal 0.000000 0.000000 -1.000000
outer loop
vertex 2.400587 22.214764 11.853785
vertex 2.700587 28.214764 11.853785
vertex 2.700587 22.214764 11.853785
endloop
endfacet
facet normal 0.000000 0.000000 -1.000000
outer loop
vertex 2.400587 16.214767 11.853785
vertex 2.400587 22.214764 11.853785
vertex 2.700587 22.214764 11.853785
endloop
endfacet
facet normal 0.000000 0.000000 -1.000000
outer loop
vertex 2.400587 16.214767 11.853785
vertex 2.700587 22.214764 11.853785
vertex 2.700587 16.214767 11.853785
endloop
endfacet
facet normal 0.000000 -1.000000 0.000000
outer loop
vertex 2.400587 16.214767 23.353785
vertex 2.400587 16.214767 11.853785
vertex 2.700587 16.214767 11.853785
endloop
endfacet
facet normal 0.000000 -1.000000 0.000000
outer loop
vertex 2.400587 16.214767 23.353785
vertex 2.700587 16.214767 11.853785
vertex 2.700587 16.214767 23.353785
endloop
endfacet
facet normal 0.000000 1.000000 0.000000
outer loop
vertex 2.400587 28.214764 11.853785
vertex 2.400587 28.214764 23.353785
vertex 2.700587 28.214764 23.353785
endloop
endfacet
facet normal 0.000000 1.000000 0.000000
outer loop
vertex 2.400587 28.214764 11.853785
vertex 2.700587 28.214764 23.353785
vertex 2.700587 28.214764 11.853785
endloop
endfacet
facet normal 0.000000 0.000000 1.000000
outer loop
vertex 2.400587 28.214764 23.353785
vertex 2.400587 22.214764 23.353785
vertex 2.700587 22.214764 23.353785
endloop
endfacet
facet normal 0.000000 0.000000 1.000000
outer loop
vertex 2.400587 28.214764 23.353785
vertex 2.700587 22.214764 23.353785
vertex 2.700587 28.214764 23.353785
endloop
endfacet
facet normal 0.000000 0.000000 1.000000
outer loop
vertex 2.400587 22.214764 23.353785
vertex 2.400587 16.214767 23.353785
vertex 2.700587 16.214767 23.353785
endloop
endfacet
facet normal 0.000000 0.000000 1.000000
outer loop
vertex 2.400587 22.214764 23.353785
vertex 2.700587 16.214767 23.353785
vertex 2.700587 22.214764 23.353785
endloop
endfacet
endsolid Window_3
