solid RoomInlet
facet normal 0.000000 -1.000000 0.000000
outer loop
vertex 34.935089 22.728409 34.872902
vertex 45.706268 22.728409 34.872902
vertex 45.706268 22.728409 42.539574
endloop
endfacet
facet normal 0.000000 -1.000000 0.000000
outer loop
vertex 34.935089 22.728409 34.872902
vertex 45.706268 22.728409 42.539574
vertex 34.935089 22.728409 42.539574
endloop
endfacet
facet normal 0.000000 -1.000000 0.000000
outer loop
vertex 24.163906 22.728409 34.872910
vertex 34.935089 22.728409 34.872902
vertex 34.935089 22.728409 42.539574
endloop
endfacet
facet normal 0.000000 -1.000000 0.000000
outer loop
vertex 24.163906 22.728409 34.872910
vertex 34.935089 22.728409 42.539574
vertex 24.163910 22.728409 42.539581
endloop
endfacet
endsolid RoomInlet
