solid RoomOutlet
facet normal -1.000000 0.000000 0.000000
outer loop
vertex 101.907784 35.766228 38.061703
vertex 101.907784 35.766228 43.497581
vertex 101.907784 55.766235 43.497581
endloop
endfacet
facet normal -1.000000 0.000000 0.000000
outer loop
vertex 101.907784 35.766228 38.061703
vertex 101.907784 55.766235 43.497581
vertex 101.907784 55.766235 38.061703
endloop
endfacet
facet normal -1.000000 0.000000 0.000000
outer loop
vertex 101.907784 55.766235 38.061703
vertex 101.907784 55.766235 43.497581
vertex 101.907784 75.766235 43.497581
endloop
endfacet
facet normal -1.000000 0.000000 0.000000
outer loop
vertex 101.907784 55.766235 38.061703
vertex 101.907784 75.766235 43.497581
vertex 101.907784 75.766235 38.061703
endloop
endfacet
endsolid RoomOutlet
